Mutua-Stencil.ufo
<glyph name="exclam" format="2">
	<advance width="388"/>
	<unicode hex="0021"/>
	<guideline x="-211" y="696" angle="0"/>
	<outline>
		<contour>
			<point x="128" y="-3" type="line"/>
			<point x="259" y="-3" type="line"/>
			<point x="259" y="129" type="line"/>
			<point x="128" y="129" type="line"/>
		</contour>
		<contour>
			<point x="117" y="696" type="line"/>
			<point x="131" y="216" type="line"/>
			<point x="257" y="216" type="line"/>
			<point x="271" y="696" type="line"/>
		</contour>
	</outline>
</glyph>
<glyph name="two" format="2">
	<advance width="720"/>
	<unicode hex="0032"/>
	<guideline x="349" y="180" angle="0"/>
	<outline>
		<contour>
			<point x="80" y="1" type="line"/>
			<point x="147" y="1" type="line"/>
			<point x="147" y="0" type="line"/>
			<point x="647" y="0" type="line"/>
			<point x="647" y="130" type="line"/>
			<point x="80" y="130" type="line"/>
		</contour>
		<contour>
			<point x="80" y="180" type="line"/>
			<point x="251" y="180" type="line"/>
			<point x="604" y="480" type="line" smooth="yes"/>
			<point x="636" y="507"/>
			<point x="649" y="536"/>
			<point x="649" y="578" type="curve" smooth="yes"/>
			<point x="649" y="603" type="line" smooth="yes"/>
			<point x="649" y="702"/>
			<point x="586" y="759"/>
			<point x="465" y="759" type="curve" smooth="yes"/>
			<point x="271" y="759" type="line" smooth="yes"/>
			<point x="147" y="759"/>
			<point x="85" y="702"/>
			<point x="85" y="603" type="curve" smooth="yes"/>
			<point x="85" y="508" type="line"/>
			<point x="210" y="508" type="line"/>
			<point x="210" y="571" type="line" smooth="yes"/>
			<point x="210" y="617"/>
			<point x="243" y="634"/>
			<point x="289" y="634" type="curve" smooth="yes"/>
			<point x="443" y="634" type="line" smooth="yes"/>
			<point x="479" y="634"/>
			<point x="524" y="626"/>
			<point x="524" y="589" type="curve" smooth="yes"/>
			<point x="524" y="558"/>
			<point x="515" y="550"/>
			<point x="495" y="533" type="curve" smooth="yes"/>
			<point x="80" y="184" type="line"/>
		</contour>
	</outline>
</glyph>
<glyph name="four" format="2">
	<advance width="720"/>
	<unicode hex="0034"/>
	<outline>
		<contour>
			<point x="271" y="679" type="line"/>
			<point x="424" y="679" type="line"/>
			<point x="424" y="289" type="line"/>
			<point x="145" y="289" type="line"/>
			<point x="374" y="629" type="line"/>
			<point x="240" y="629" type="line"/>
			<point x="23" y="309" type="line"/>
			<point x="23" y="169" type="line"/>
			<point x="424" y="169" type="line"/>
			<point x="424" y="6" type="line"/>
			<point x="549" y="6" type="line"/>
			<point x="549" y="169" type="line"/>
			<point x="648" y="169" type="line"/>
			<point x="648" y="289" type="line"/>
			<point x="549" y="289" type="line"/>
			<point x="549" y="762" type="line"/>
			<point x="327" y="762" type="line"/>
		</contour>
	</outline>
</glyph>
<glyph name="six" format="2">
	<advance width="720"/>
	<unicode hex="0036"/>
	<outline>
		<contour>
			<point x="215" y="199" type="curve"/>
			<point x="215" y="502" type="line"/>
			<point x="215" y="589"/>
			<point x="253" y="630"/>
			<point x="338" y="630" type="curve" smooth="yes"/>
			<point x="590" y="630" type="line"/>
			<point x="590" y="756" type="line"/>
			<point x="315" y="756" type="line"/>
			<point x="153" y="756"/>
			<point x="87" y="675"/>
			<point x="87" y="528" type="curve" smooth="yes"/>
			<point x="87" y="227" type="line"/>
			<point x="87" y="49"/>
			<point x="165" y="0"/>
			<point x="378" y="0" type="curve" smooth="yes"/>
			<point x="586" y="0"/>
			<point x="652" y="48"/>
			<point x="652" y="245" type="curve"/>
			<point x="652" y="404"/>
			<point x="586" y="472"/>
			<point x="447" y="472" type="curve" smooth="yes"/>
			<point x="381" y="472" type="line" smooth="yes"/>
			<point x="299" y="472"/>
			<point x="255" y="426"/>
			<point x="264" y="347" type="curve"/>
			<point x="451" y="347" type="line" smooth="yes"/>
			<point x="513" y="347"/>
			<point x="530" y="316"/>
			<point x="530" y="269" type="curve" smooth="yes"/>
			<point x="530" y="199" type="line"/>
			<point x="530" y="152"/>
			<point x="518" y="125"/>
			<point x="457" y="125" type="curve" smooth="yes"/>
			<point x="295" y="125" type="line"/>
			<point x="238" y="125"/>
			<point x="215" y="152"/>
		</contour>
	</outline>
</glyph>
<glyph name="eight" format="2">
	<advance width="720"/>
	<unicode hex="0038"/>
	<outline>
		<contour>
			<point x="657" y="175" type="line"/>
			<point x="657" y="235" type="line" smooth="yes"/>
			<point x="657" y="340"/>
			<point x="614" y="377"/>
			<point x="503" y="377" type="curve"/>
			<point x="542" y="339" type="line"/>
			<point x="542" y="443" type="line"/>
			<point x="513" y="404" type="line"/>
			<point x="599" y="404"/>
			<point x="640" y="442"/>
			<point x="640" y="528" type="curve" smooth="yes"/>
			<point x="640" y="596" type="line" smooth="yes"/>
			<point x="640" y="699"/>
			<point x="573" y="756"/>
			<point x="454" y="756" type="curve" smooth="yes"/>
			<point x="261" y="756" type="line" smooth="yes"/>
			<point x="156" y="756"/>
			<point x="92" y="712"/>
			<point x="78" y="631" type="curve"/>
			<point x="434" y="631" type="line"/>
			<point x="485" y="631"/>
			<point x="508" y="614"/>
			<point x="508" y="568" type="curve"/>
			<point x="508" y="515" type="line" smooth="yes"/>
			<point x="508" y="468"/>
			<point x="485" y="451"/>
			<point x="434" y="451" type="curve" smooth="yes"/>
			<point x="281" y="451" type="line"/>
			<point x="230" y="451"/>
			<point x="207" y="468"/>
			<point x="207" y="515" type="curve"/>
			<point x="207" y="581" type="line"/>
			<point x="75" y="581" type="line"/>
			<point x="75" y="528" type="line"/>
			<point x="75" y="442"/>
			<point x="113" y="405"/>
			<point x="202" y="405" type="curve"/>
			<point x="175" y="451" type="line"/>
			<point x="175" y="339" type="line"/>
			<point x="202" y="377" type="line"/>
			<point x="103" y="377"/>
			<point x="62" y="330"/>
			<point x="62" y="235" type="curve" smooth="yes"/>
			<point x="62" y="160" type="line" smooth="yes"/>
			<point x="62" y="57"/>
			<point x="139" y="0"/>
			<point x="276" y="0" type="curve" smooth="yes"/>
			<point x="449" y="0" type="line" smooth="yes"/>
			<point x="566" y="0"/>
			<point x="639" y="44"/>
			<point x="654" y="125" type="curve"/>
			<point x="263" y="125" type="line"/>
			<point x="214" y="125"/>
			<point x="198" y="142"/>
			<point x="197" y="189" type="curve" smooth="yes"/>
			<point x="196" y="270" type="line" smooth="yes"/>
			<point x="195" y="317"/>
			<point x="219" y="334"/>
			<point x="270" y="334" type="curve"/>
			<point x="445" y="334" type="line" smooth="yes"/>
			<point x="496" y="334"/>
			<point x="526" y="316"/>
			<point x="525" y="270" type="curve"/>
			<point x="525" y="175" type="line"/>
		</contour>
	</outline>
</glyph>
<glyph name="colon" format="2">
	<advance width="245"/>
	<unicode hex="003A"/>
	<outline>
		<contour>
			<point x="50" y="0" type="line"/>
			<point x="195" y="0" type="line"/>
			<point x="195" y="145" type="line"/>
			<point x="50" y="145" type="line"/>
		</contour>
		<contour>
			<point x="50" y="557" type="line"/>
			<point x="50" y="411" type="line"/>
			<point x="195" y="411" type="line"/>
			<point x="195" y="557" type="line"/>
		</contour>
	</outline>
</glyph>
<glyph name="question" format="2">
	<advance width="570"/>
	<unicode hex="003F"/>
	<outline>
		<contour>
			<point x="371" y="452" type="curve" smooth="yes"/>
			<point x="275" y="452" type="line"/>
			<point x="205" y="452"/>
			<point x="169" y="423"/>
			<point x="169" y="356" type="curve" smooth="yes"/>
			<point x="169" y="324"/>
			<point x="169" y="227"/>
			<point x="169" y="204" type="curve"/>
			<point x="291" y="204" type="line"/>
			<point x="291" y="244"/>
			<point x="291" y="271"/>
			<point x="291" y="296" type="curve" smooth="yes"/>
			<point x="291" y="321"/>
			<point x="303" y="332"/>
			<point x="331" y="332" type="curve" smooth="yes"/>
			<point x="421" y="333" type="line" smooth="yes"/>
			<point x="497" y="334"/>
			<point x="530" y="373"/>
			<point x="530" y="443" type="curve" smooth="yes"/>
			<point x="530" y="595" type="line" smooth="yes"/>
			<point x="530" y="671"/>
			<point x="497" y="704"/>
			<point x="421" y="704" type="curve" smooth="yes"/>
			<point x="107" y="704" type="line"/>
			<point x="107" y="579" type="line"/>
			<point x="371" y="579" type="line" smooth="yes"/>
			<point x="398" y="579"/>
			<point x="410" y="561"/>
			<point x="410" y="541" type="curve" smooth="yes"/>
			<point x="410" y="521"/>
			<point x="410" y="508"/>
			<point x="410" y="495" type="curve" smooth="yes"/>
			<point x="410" y="465"/>
			<point x="398" y="452"/>
		</contour>
		<contour>
			<point x="167" y="0" type="line"/>
			<point x="296" y="0" type="line"/>
			<point x="296" y="129" type="line"/>
			<point x="167" y="129" type="line"/>
		</contour>
	</outline>
</glyph>
<glyph name="B" format="2">
	<advance width="792"/>
	<unicode hex="0042"/>
	<guideline x="-253" y="0" angle="0"/>
	<outline>
		<contour>
			<point x="241" y="0" type="line"/>
			<point x="241" y="756" type="line"/>
			<point x="114" y="756" type="line"/>
			<point x="114" y="0" type="line"/>
		</contour>
		<contour>
			<point x="484" y="125" type="curve" smooth="yes"/>
			<point x="291" y="125" type="line"/>
			<point x="291" y="0" type="line"/>
			<point x="494" y="0" type="line" smooth="yes"/>
			<point x="630" y="0"/>
			<point x="715" y="48"/>
			<point x="715" y="205" type="curve" smooth="yes"/>
			<point x="715" y="324"/>
			<point x="669" y="388"/>
			<point x="561" y="388" type="curve"/>
			<point x="561" y="410" type="line"/>
			<point x="653" y="410"/>
			<point x="690" y="467"/>
			<point x="690" y="571" type="curve" smooth="yes"/>
			<point x="690" y="678"/>
			<point x="640" y="756"/>
			<point x="464" y="756" type="curve" smooth="yes"/>
			<point x="291" y="756" type="line"/>
			<point x="291" y="631" type="line"/>
			<point x="459" y="631" type="line"/>
			<point x="522" y="631"/>
			<point x="561" y="608"/>
			<point x="561" y="540" type="curve" smooth="yes"/>
			<point x="561" y="474"/>
			<point x="514" y="451"/>
			<point x="463" y="451" type="curve"/>
			<point x="163" y="451" type="line"/>
			<point x="163" y="330" type="line"/>
			<point x="486" y="330" type="line"/>
			<point x="562" y="329"/>
			<point x="585" y="287"/>
			<point x="585" y="229" type="curve" smooth="yes"/>
			<point x="585" y="150"/>
			<point x="548" y="125"/>
		</contour>
	</outline>
</glyph>
<glyph name="D" format="2">
	<advance width="817"/>
	<unicode hex="0044"/>
	<outline>
		<contour>
			<point x="114" y="0" type="line"/>
			<point x="242" y="0" type="line"/>
			<point x="242" y="629" type="line"/>
			<point x="476" y="629" type="line"/>
			<point x="560" y="629"/>
			<point x="597" y="592"/>
			<point x="597" y="520" type="curve" smooth="yes"/>
			<point x="597" y="234" type="line" smooth="yes"/>
			<point x="597" y="156"/>
			<point x="560" y="125"/>
			<point x="476" y="125" type="curve" smooth="yes"/>
			<point x="460" y="125" type="line"/>
			<point x="460" y="0" type="line"/>
			<point x="523" y="0" type="line" smooth="yes"/>
			<point x="663" y="0"/>
			<point x="725" y="73"/>
			<point x="725" y="231" type="curve" smooth="yes"/>
			<point x="725" y="528" type="line" smooth="yes"/>
			<point x="725" y="686"/>
			<point x="663" y="759"/>
			<point x="523" y="759" type="curve" smooth="yes"/>
			<point x="114" y="759" type="line"/>
		</contour>
		<contour>
			<point x="292" y="125" type="line"/>
			<point x="292" y="0" type="line"/>
			<point x="460" y="0" type="line"/>
			<point x="460" y="125" type="line"/>
		</contour>
	</outline>
</glyph>
<glyph name="M" format="2">
	<advance width="1005"/>
	<unicode hex="004D"/>
	<guideline x="911" y="263" angle="90"/>
	<guideline x="95" y="481" angle="90"/>
	<outline>
		<contour>
			<point x="755" y="580" type="line"/>
			<point x="788" y="0" type="line"/>
			<point x="913" y="0" type="line"/>
			<point x="882" y="580" type="line"/>
		</contour>
		<contour>
			<point x="124" y="580" type="line"/>
			<point x="92" y="-1" type="line"/>
			<point x="206" y="-1" type="line"/>
			<point x="239" y="580" type="line"/>
		</contour>
		<contour>
			<point x="134" y="756" type="line"/>
			<point x="127" y="630" type="line"/>
			<point x="250" y="630" type="line"/>
			<point x="398" y="43" type="line"/>
			<point x="600" y="43" type="line"/>
			<point x="734" y="630" type="line"/>
			<point x="879" y="630" type="line"/>
			<point x="872" y="756" type="line"/>
			<point x="662" y="756" type="line"/>
			<point x="515" y="177" type="line"/>
			<point x="499" y="177" type="line"/>
			<point x="344" y="756" type="line"/>
		</contour>
	</outline>
</glyph>
<glyph name="N" format="2">
	<advance width="852"/>
	<unicode hex="004E"/>
	<anchor x="436" y="756" name="top"/>
	<anchor x="412" y="0" name="bottom"/>
	<outline>
		<contour>
			<point x="114" y="583" type="line"/>
			<point x="114" y="0" type="line"/>
			<point x="234" y="0" type="line"/>
			<point x="236" y="583" type="line"/>
		</contour>
		<contour>
			<point x="738" y="124" type="line"/>
			<point x="607" y="124" type="line"/>
			<point x="327" y="756" type="line"/>
			<point x="114" y="756" type="line"/>
			<point x="114" y="633" type="line"/>
			<point x="246" y="633" type="line"/>
			<point x="527" y="0" type="line"/>
			<point x="738" y="0" type="line"/>
		</contour>
		<contour>
			<point x="738" y="174" type="line"/>
			<point x="738" y="756" type="line"/>
			<point x="617" y="756" type="line"/>
			<point x="617" y="174" type="line"/>
		</contour>
	</outline>
</glyph>
<glyph name="O" format="2">
	<advance width="854"/>
	<unicode hex="004F"/>
	<anchor x="427" y="756" name="top"/>
	<outline>
		<contour>
			<point x="221" y="579" type="line"/>
			<point x="222" y="249" type="line" smooth="yes"/>
			<point x="222" y="164"/>
			<point x="257" y="127"/>
			<point x="341" y="127" type="curve"/>
			<point x="513" y="127" type="line" smooth="yes"/>
			<point x="597" y="127"/>
			<point x="632" y="164"/>
			<point x="632" y="249" type="curve" smooth="yes"/>
			<point x="632" y="507" type="line" smooth="yes"/>
			<point x="632" y="592"/>
			<point x="597" y="629"/>
			<point x="513" y="629" type="curve" smooth="yes"/>
			<point x="98" y="629" type="line"/>
			<point x="93" y="687"/>
			<point x="157" y="758"/>
			<point x="283" y="758" type="curve"/>
			<point x="562" y="758" type="line" smooth="yes"/>
			<point x="698" y="758"/>
			<point x="762" y="675"/>
			<point x="762" y="528" type="curve"/>
			<point x="762" y="228" type="line" smooth="yes"/>
			<point x="762" y="81"/>
			<point x="698" y="-2"/>
			<point x="561" y="-2" type="curve" smooth="yes"/>
			<point x="293" y="-2" type="line" smooth="yes"/>
			<point x="157" y="-2"/>
			<point x="92" y="81"/>
			<point x="92" y="228" type="curve" smooth="yes"/>
			<point x="92" y="579" type="line"/>
		</contour>
	</outline>
</glyph>
<glyph name="Q" format="2">
	<advance width="854"/>
	<unicode hex="0051"/>
	<outline>
		<contour>
			<point x="569" y="94" type="line"/>
			<point x="716" y="-137" type="line"/>
			<point x="569" y="-137" type="line"/>
			<point x="420" y="94" type="line"/>
		</contour>
		<component base="O"/>
	</outline>
</glyph>
<glyph name="T" format="2">
	<advance width="653"/>
	<unicode hex="0054"/>
	<outline>
		<contour>
			<point x="260" y="578" type="line"/>
			<point x="260" y="0" type="line"/>
			<point x="392" y="0" type="line"/>
			<point x="392" y="578" type="line"/>
		</contour>
		<contour>
			<point x="19" y="628" type="line"/>
			<point x="634" y="628" type="line"/>
			<point x="634" y="756" type="line"/>
			<point x="19" y="756" type="line"/>
		</contour>
	</outline>
</glyph>
<glyph name="U" format="2">
	<advance width="775"/>
	<unicode hex="0055"/>
	<anchor x="698" y="10" name="ogonek"/>
	<anchor x="388" y="756" name="top"/>
	<anchor x="755" y="756" name="topright"/>
	<anchor x="388" y="0" name="bottom"/>
	<outline>
		<contour>
			<point x="214" y="14" type="curve"/>
			<point x="216" y="756" type="line"/>
			<point x="86" y="756" type="line"/>
			<point x="86" y="235" type="line" smooth="yes"/>
			<point x="86" y="117"/>
			<point x="126" y="46"/>
		</contour>
		<contour>
			<point x="264" y="140" type="curve"/>
			<point x="264" y="3" type="line"/>
			<point x="289" y="-2"/>
			<point x="317" y="-4"/>
			<point x="348" y="-4" type="curve" smooth="yes"/>
			<point x="360" y="-4"/>
			<point x="425" y="-4"/>
			<point x="434" y="-4" type="curve" smooth="yes"/>
			<point x="614" y="-4"/>
			<point x="689" y="71"/>
			<point x="689" y="235" type="curve" smooth="yes"/>
			<point x="689" y="756" type="line"/>
			<point x="560" y="756" type="line"/>
			<point x="560" y="246" type="line" smooth="yes"/>
			<point x="560" y="165"/>
			<point x="527" y="127"/>
			<point x="442" y="127" type="curve" smooth="yes"/>
			<point x="331" y="127" type="line" smooth="yes"/>
			<point x="303" y="127"/>
			<point x="281" y="131"/>
		</contour>
	</outline>
</glyph>
<glyph name="X" format="2">
	<advance width="694"/>
	<unicode hex="0058"/>
	<guideline x="-1212" y="0" angle="0"/>
	<guideline x="-1273" y="0" angle="0"/>
	<outline>
		<contour>
			<point x="372" y="434" type="line"/>
			<point x="373" y="306" type="line"/>
			<point x="523" y="0" type="line"/>
			<point x="680" y="0" type="line"/>
			<point x="459" y="426" type="line"/>
			<point x="464" y="329" type="line"/>
			<point x="678" y="756" type="line"/>
			<point x="532" y="756" type="line"/>
		</contour>
		<contour>
			<point x="321" y="306" type="line"/>
			<point x="323" y="434" type="line"/>
			<point x="174" y="756" type="line"/>
			<point x="18" y="756" type="line"/>
			<point x="221" y="329" type="line"/>
			<point x="235" y="426" type="line"/>
			<point x="14" y="0" type="line"/>
			<point x="161" y="0" type="line"/>
		</contour>
	</outline>
</glyph>
<glyph name="Y" format="2">
	<advance width="633"/>
	<unicode hex="0059"/>
	<guideline y="273"/>
	<outline>
		<contour>
			<point x="252" y="203" type="line"/>
			<point x="252" y="0" type="line"/>
			<point x="382" y="0" type="line"/>
			<point x="382" y="203" type="line"/>
		</contour>
		<contour>
			<point x="248" y="253" type="line"/>
			<point x="387" y="253" type="line"/>
			<point x="642" y="756" type="line"/>
			<point x="496" y="756" type="line"/>
			<point x="334" y="405" type="line"/>
			<point x="307" y="405" type="line"/>
			<point x="138" y="756" type="line"/>
			<point x="-18" y="756" type="line"/>
		</contour>
	</outline>
</glyph>
<glyph name="c" format="2">
	<advance width="587"/>
	<unicode hex="0063"/>
	<outline>
		<contour>
			<point x="529" y="439" type="line"/>
			<point x="89" y="439" type="line"/>
			<point x="123" y="516"/>
			<point x="198" y="559"/>
			<point x="300" y="559" type="curve" smooth="yes"/>
			<point x="529" y="559" type="line"/>
		</contour>
		<contour>
			<point x="73" y="389" type="curve"/>
			<point x="197" y="389" type="line"/>
			<point x="197" y="217" type="line"/>
			<point x="197" y="145"/>
			<point x="230" y="115"/>
			<point x="304" y="115" type="curve" smooth="yes"/>
			<point x="528" y="115" type="line"/>
			<point x="528" y="-3" type="line"/>
			<point x="271" y="-3" type="line" smooth="yes"/>
			<point x="144" y="-3"/>
			<point x="68" y="86"/>
			<point x="68" y="226" type="curve" smooth="yes"/>
			<point x="68" y="333" type="line" smooth="yes"/>
			<point x="68" y="353"/>
			<point x="70" y="372"/>
		</contour>
	</outline>
</glyph>
<glyph name="d" format="2">
	<advance width="686"/>
	<unicode hex="0064"/>
	<guideline x="-2621" y="0" angle="0"/>
	<guideline x="27" y="1513" angle="0"/>
	<outline>
		<contour>
			<point x="589" y="778" type="line"/>
			<point x="466" y="778" type="line"/>
			<point x="466" y="0" type="line"/>
			<point x="589" y="0" type="line"/>
		</contour>
		<contour>
			<point x="196" y="195" type="curve"/>
			<point x="196" y="355" type="line"/>
			<point x="196" y="411"/>
			<point x="229" y="437"/>
			<point x="285" y="437" type="curve" smooth="yes"/>
			<point x="465" y="436" type="line"/>
			<point x="505" y="557" type="line"/>
			<point x="257" y="557" type="line"/>
			<point x="137" y="557"/>
			<point x="73" y="481"/>
			<point x="73" y="344" type="curve"/>
			<point x="73" y="212" type="line"/>
			<point x="73" y="70"/>
			<point x="137" y="-6"/>
			<point x="239" y="-6" type="curve"/>
			<point x="277" y="-7" type="line"/>
			<point x="372" y="-7"/>
			<point x="426" y="43"/>
			<point x="426" y="113" type="curve"/>
			<point x="286" y="113" type="line"/>
			<point x="230" y="113"/>
			<point x="196" y="139"/>
		</contour>
	</outline>
</glyph>
<glyph name="f" format="2">
	<advance width="449"/>
	<unicode hex="0066"/>
	<outline>
		<contour>
			<point x="125" y="383" type="line"/>
			<point x="125" y="0" type="line"/>
			<point x="248" y="0" type="line"/>
			<point x="248" y="383" type="line"/>
		</contour>
		<contour>
			<point x="44" y="554" type="line"/>
			<point x="44" y="433" type="line"/>
			<point x="423" y="433" type="line"/>
			<point x="423" y="554" type="line"/>
		</contour>
		<contour>
			<point x="248" y="451" type="line"/>
			<point x="248" y="596" type="line" smooth="yes"/>
			<point x="248" y="635"/>
			<point x="269" y="656"/>
			<point x="311" y="656" type="curve" smooth="yes"/>
			<point x="441" y="656" type="line"/>
			<point x="441" y="778" type="line"/>
			<point x="285" y="778" type="line" smooth="yes"/>
			<point x="181" y="778"/>
			<point x="125" y="722"/>
			<point x="125" y="618" type="curve" smooth="yes"/>
			<point x="125" y="451" type="line"/>
		</contour>
	</outline>
</glyph>
<glyph name="g" format="2">
	<advance width="630"/>
	<unicode hex="0067"/>
	<outline>
		<contour>
			<point x="236" y="458" type="curve" smooth="yes"/>
			<point x="412" y="458" type="line"/>
			<point x="412" y="527"/>
			<point x="381" y="566"/>
			<point x="291" y="566" type="curve" smooth="yes"/>
			<point x="241" y="566" type="line" smooth="yes"/>
			<point x="112" y="566"/>
			<point x="63" y="517"/>
			<point x="63" y="388" type="curve" smooth="yes"/>
			<point x="63" y="354" type="line" smooth="yes"/>
			<point x="63" y="248"/>
			<point x="112" y="161"/>
			<point x="241" y="161" type="curve"/>
			<point x="392" y="161" type="line" smooth="yes"/>
			<point x="506" y="161"/>
			<point x="568" y="220"/>
			<point x="568" y="341" type="curve" smooth="yes"/>
			<point x="568" y="629" type="line"/>
			<point x="454" y="629" type="line"/>
			<point x="454" y="329" type="line" smooth="yes"/>
			<point x="454" y="290"/>
			<point x="433" y="269"/>
			<point x="390" y="269" type="curve" smooth="yes"/>
			<point x="236" y="269" type="line" smooth="yes"/>
			<point x="197" y="269"/>
			<point x="177" y="290"/>
			<point x="177" y="329" type="curve" smooth="yes"/>
			<point x="177" y="398" type="line" smooth="yes"/>
			<point x="177" y="437"/>
			<point x="197" y="458"/>
		</contour>
		<contour>
			<point x="81" y="60" type="line"/>
			<point x="81" y="8"/>
			<point x="113" y="-21"/>
			<point x="183" y="-21" type="curve" smooth="yes"/>
			<point x="432" y="-21" type="line" smooth="yes"/>
			<point x="458" y="-21"/>
			<point x="472" y="-34"/>
			<point x="472" y="-65" type="curve" smooth="yes"/>
			<point x="472" y="-97"/>
			<point x="458" y="-110"/>
			<point x="432" y="-110" type="curve" smooth="yes"/>
			<point x="94" y="-110" type="line"/>
			<point x="94" y="-212" type="line"/>
			<point x="462" y="-212" type="line" smooth="yes"/>
			<point x="538" y="-212"/>
			<point x="571" y="-179"/>
			<point x="571" y="-101" type="curve" smooth="yes"/>
			<point x="571" y="-20" type="line" smooth="yes"/>
			<point x="571" y="50"/>
			<point x="538" y="80"/>
			<point x="462" y="80" type="curve" smooth="yes"/>
			<point x="239" y="81" type="line" smooth="yes"/>
			<point x="211" y="81"/>
			<point x="199" y="92"/>
			<point x="199" y="117" type="curve"/>
			<point x="199" y="118" type="line"/>
			<point x="81" y="118" type="line"/>
		</contour>
	</outline>
</glyph>
<glyph name="i" format="2">
	<advance width="306"/>
	<unicode hex="0069"/>
	<outline>
		<contour>
			<point x="91" y="556" type="line"/>
			<point x="91" y="0" type="line"/>
			<point x="215" y="0" type="line"/>
			<point x="215" y="556" type="line"/>
		</contour>
		<contour>
			<point x="90" y="778" type="line"/>
			<point x="90" y="652" type="line"/>
			<point x="216" y="652" type="line"/>
			<point x="216" y="778" type="line"/>
		</contour>
	</outline>
</glyph>
<glyph name="m" format="2">
	<advance width="1012"/>
	<unicode hex="006D"/>
	<outline>
		<contour>
			<point x="217" y="0" type="line"/>
			<point x="217" y="556" type="line"/>
			<point x="91" y="556" type="line"/>
			<point x="91" y="0" type="line"/>
		</contour>
		<contour>
			<point x="257" y="439" type="curve"/>
			<point x="348" y="439" type="line" smooth="yes"/>
			<point x="420" y="439"/>
			<point x="452" y="403"/>
			<point x="452" y="329" type="curve" smooth="yes"/>
			<point x="452" y="0" type="line"/>
			<point x="575" y="0" type="line"/>
			<point x="575" y="380" type="line" smooth="yes"/>
			<point x="575" y="486"/>
			<point x="551" y="559"/>
			<point x="410" y="559" type="curve" smooth="yes"/>
			<point x="305" y="559"/>
			<point x="256" y="509"/>
		</contour>
		<contour>
			<point x="614" y="439" type="curve"/>
			<point x="705" y="439" type="line" smooth="yes"/>
			<point x="777" y="439"/>
			<point x="809" y="403"/>
			<point x="809" y="329" type="curve" smooth="yes"/>
			<point x="809" y="0" type="line"/>
			<point x="932" y="0" type="line"/>
			<point x="932" y="380" type="line" smooth="yes"/>
			<point x="932" y="486"/>
			<point x="908" y="559"/>
			<point x="767" y="559" type="curve" smooth="yes"/>
			<point x="662" y="559"/>
			<point x="613" y="509"/>
		</contour>
	</outline>
</glyph>
<glyph name="n" format="2">
	<advance width="674"/>
	<unicode hex="006E"/>
	<anchor x="396" y="556" name="top"/>
	<anchor x="373" y="0" name="bottom"/>
	<anchor x="384" y="560" name="top_"/>
	<outline>
		<contour>
			<point x="255" y="439" type="curve"/>
			<point x="367" y="439" type="line"/>
			<point x="437" y="439"/>
			<point x="471" y="405"/>
			<point x="471" y="326" type="curve" smooth="yes"/>
			<point x="471" y="0" type="line"/>
			<point x="594" y="0" type="line"/>
			<point x="594" y="380" type="line" smooth="yes"/>
			<point x="594" y="498"/>
			<point x="536" y="559"/>
			<point x="415" y="559" type="curve" smooth="yes"/>
			<point x="401" y="559" type="line"/>
			<point x="311" y="559"/>
			<point x="255" y="508"/>
		</contour>
		<contour>
			<point x="215" y="0" type="line"/>
			<point x="215" y="556" type="line"/>
			<point x="91" y="556" type="line"/>
			<point x="91" y="0" type="line"/>
		</contour>
	</outline>
</glyph>
<glyph name="q" format="2">
	<advance width="672"/>
	<unicode hex="0071"/>
	<guideline x="-2907" y="0" angle="0"/>
	<guideline x="32" y="354" angle="0"/>
	<outline>
		<contour>
			<point x="582" y="556" type="line"/>
			<point x="459" y="556" type="line"/>
			<point x="459" y="-210" type="line"/>
			<point x="582" y="-210" type="line"/>
		</contour>
		<contour>
			<point x="197" y="351" type="curve"/>
			<point x="197" y="411"/>
			<point x="228" y="436"/>
			<point x="292" y="436" type="curve"/>
			<point x="464" y="436" type="line"/>
			<point x="495" y="556" type="line"/>
			<point x="495" y="556"/>
			<point x="404" y="556"/>
			<point x="267" y="556" type="curve" smooth="yes"/>
			<point x="126" y="556"/>
			<point x="71" y="481"/>
			<point x="71" y="374" type="curve" smooth="yes"/>
			<point x="71" y="175" type="line" smooth="yes"/>
			<point x="71" y="50"/>
			<point x="143" y="-6"/>
			<point x="257" y="-4" type="curve"/>
			<point x="293" y="-4" type="line"/>
			<point x="363" y="-4"/>
			<point x="419" y="47"/>
			<point x="419" y="116" type="curve"/>
			<point x="289" y="116" type="line" smooth="yes"/>
			<point x="225" y="116"/>
			<point x="197" y="135"/>
			<point x="197" y="196" type="curve" smooth="yes"/>
			<point x="197" y="217"/>
			<point x="197" y="350"/>
		</contour>
	</outline>
</glyph>
<glyph name="exclamdown" format="2">
	<advance width="388"/>
	<unicode hex="00A1"/>
	<guideline x="-251" y="-164" angle="0"/>
	<guideline x="-185" y="429" angle="0"/>
	<outline>
		<contour>
			<point x="128" y="533" type="line"/>
			<point x="128" y="401" type="line"/>
			<point x="259" y="401" type="line"/>
			<point x="259" y="533" type="line"/>
		</contour>
		<contour>
			<point x="117" y="-166" type="line"/>
			<point x="271" y="-166" type="line"/>
			<point x="257" y="314" type="line"/>
			<point x="131" y="314" type="line"/>
		</contour>
	</outline>
</glyph>
<glyph name="questiondown" format="2">
	<advance width="570"/>
	<unicode hex="00BF"/>
	<guideline x="571" y="-175" angle="0"/>
	<outline>
		<contour>
			<point x="199" y="252" type="curve" smooth="yes"/>
			<point x="305" y="252" type="line"/>
			<point x="375" y="252"/>
			<point x="411" y="281"/>
			<point x="411" y="348" type="curve" smooth="yes"/>
			<point x="411" y="380"/>
			<point x="411" y="477"/>
			<point x="411" y="500" type="curve"/>
			<point x="289" y="500" type="line"/>
			<point x="289" y="460"/>
			<point x="289" y="433"/>
			<point x="289" y="408" type="curve" smooth="yes"/>
			<point x="289" y="383"/>
			<point x="277" y="372"/>
			<point x="249" y="372" type="curve" smooth="yes"/>
			<point x="149" y="371" type="line" smooth="yes"/>
			<point x="73" y="370"/>
			<point x="40" y="331"/>
			<point x="40" y="261" type="curve" smooth="yes"/>
			<point x="40" y="109" type="line" smooth="yes"/>
			<point x="40" y="33"/>
			<point x="53" y="0"/>
			<point x="129" y="0" type="curve" smooth="yes"/>
			<point x="463" y="0" type="line"/>
			<point x="463" y="125" type="line"/>
			<point x="199" y="125" type="line" smooth="yes"/>
			<point x="172" y="125"/>
			<point x="160" y="143"/>
			<point x="160" y="163" type="curve" smooth="yes"/>
			<point x="160" y="183"/>
			<point x="160" y="201"/>
			<point x="160" y="209" type="curve" smooth="yes"/>
			<point x="160" y="239"/>
			<point x="172" y="252"/>
		</contour>
		<contour>
			<point x="413" y="704" type="line"/>
			<point x="284" y="704" type="line"/>
			<point x="284" y="575" type="line"/>
			<point x="413" y="575" type="line"/>
		</contour>
	</outline>
</glyph>
<glyph name="iacute" format="2">
	<advance width="298"/>
	<unicode hex="00ED"/>
	<anchor x="152" y="556" name="_top"/>
	<outline>
		<contour>
			<point x="52" y="704" type="line"/>
			<point x="95" y="614" type="line"/>
			<point x="344" y="717" type="line"/>
			<point x="278" y="847" type="line"/>
		</contour>
		<component base="dotlessi"/>
	</outline>
</glyph>
<glyph name="dotlessi" format="2">
	<advance width="298"/>
	<unicode hex="0131"/>
	<anchor x="268" y="10" name="ogonek"/>
	<anchor x="149" y="0" name="bottom"/>
	<anchor x="154" y="556" name="top"/>
	<outline>
		<contour>
			<point x="91" y="556" type="line"/>
			<point x="91" y="0" type="line"/>
			<point x="217" y="0" type="line"/>
			<point x="217" y="556" type="line"/>
		</contour>
	</outline>
</glyph>
<glyph name="acutecomb" format="2">
	<advance width="0"/>
	<unicode hex="0301"/>
	<anchor x="0" y="556" name="_top"/>
	<outline>
		<contour>
			<point x="-172" y="704" type="line"/>
			<point x="-129" y="614" type="line"/>
			<point x="185" y="751" type="line"/>
			<point x="119" y="881" type="line"/>
		</contour>
	</outline>
</glyph>
<glyph name="tildecomb" format="2">
	<advance width="0"/>
	<unicode hex="0303"/>
	<anchor x="-271" y="826" name="top"/>
	<anchor x="-271" y="556" name="_top"/>
	<outline>
		<contour>
			<point x="-483" y="692" type="curve" smooth="yes"/>
			<point x="-483" y="634" type="line"/>
			<point x="-396" y="634" type="line"/>
			<point x="-396" y="675" type="line" smooth="yes"/>
			<point x="-396" y="698"/>
			<point x="-385" y="712"/>
			<point x="-357" y="712" type="curve" smooth="yes"/>
			<point x="-313" y="712"/>
			<point x="-241" y="640"/>
			<point x="-176" y="640" type="curve" smooth="yes"/>
			<point x="-90" y="640"/>
			<point x="-57" y="672"/>
			<point x="-57" y="754" type="curve" smooth="yes"/>
			<point x="-57" y="817" type="line"/>
			<point x="-144" y="817" type="line"/>
			<point x="-144" y="794" type="line" smooth="yes"/>
			<point x="-144" y="765"/>
			<point x="-153" y="753"/>
			<point x="-178" y="753" type="curve" smooth="yes"/>
			<point x="-224" y="753"/>
			<point x="-295" y="825"/>
			<point x="-360" y="825" type="curve" smooth="yes"/>
			<point x="-449" y="825"/>
			<point x="-483" y="788"/>
		</contour>
	</outline>
</glyph>
<glyph name="quotedblleft" format="2">
	<advance width="456"/>
	<unicode hex="201C"/>
	<outline>
		<contour>
			<point x="97" y="699" type="line"/>
			<point x="40" y="451" type="line"/>
			<point x="170" y="451" type="line"/>
			<point x="206" y="699" type="line"/>
		</contour>
		<contour>
			<point x="297" y="699" type="line"/>
			<point x="240" y="451" type="line"/>
			<point x="370" y="451" type="line"/>
			<point x="406" y="699" type="line"/>
		</contour>
	</outline>
</glyph>
<glyph name="quotedblright" format="2">
	<advance width="456"/>
	<unicode hex="201D"/>
	<outline>
		<contour>
			<point x="159" y="450" type="line"/>
			<point x="216" y="698" type="line"/>
			<point x="86" y="698" type="line"/>
			<point x="50" y="449" type="line"/>
		</contour>
		<contour>
			<point x="359" y="450" type="line"/>
			<point x="416" y="698" type="line"/>
			<point x="286" y="698" type="line"/>
			<point x="250" y="449" type="line"/>
		</contour>
	</outline>
</glyph>
<glyph name="guilsinglleft" format="2">
	<advance width="303"/>
	<unicode hex="2039"/>
	<guideline x="8" y="254" angle="90"/>
	<guideline x="275" y="260" angle="90"/>
	<outline>
		<contour>
			<point x="50" y="183" type="line"/>
			<point x="253" y="63" type="line"/>
			<point x="253" y="203" type="line"/>
			<point x="143" y="259" type="line"/>
			<point x="143" y="279" type="line"/>
			<point x="253" y="335" type="line"/>
			<point x="253" y="475" type="line"/>
			<point x="50" y="355" type="line"/>
		</contour>
	</outline>
</glyph>
<glyph name="Disc" format="2">
	<advance width="807"/>
	<outline>
		<contour>
			<point x="787" y="160" type="line"/>
			<point x="705" y="160" type="line"/>
			<point x="645" y="340" type="line"/>
			<point x="449" y="339" type="line" smooth="yes"/>
			<point x="419" y="339"/>
			<point x="403" y="355"/>
			<point x="403" y="385" type="curve" smooth="yes"/>
			<point x="403" y="583" type="line"/>
			<point x="283" y="583" type="line"/>
			<point x="283" y="350" type="line" smooth="yes"/>
			<point x="283" y="275"/>
			<point x="325" y="233"/>
			<point x="400" y="234" type="curve" smooth="yes"/>
			<point x="565" y="236" type="line"/>
			<point x="625" y="56" type="line"/>
			<point x="787" y="56" type="line"/>
		</contour>
		<contour>
			<point x="319" y="413" type="line"/>
			<point x="505" y="413" type="line"/>
			<point x="505" y="517" type="line"/>
			<point x="319" y="517" type="line"/>
		</contour>
		<contour>
			<point x="282" y="756" type="line"/>
			<point x="282" y="630" type="line"/>
			<point x="408" y="630" type="line"/>
			<point x="408" y="756" type="line"/>
		</contour>
		<contour>
			<point x="366" y="441" type="move"/>
		</contour>
		<contour>
			<point x="565" y="72" type="curve"/>
			<point x="522" y="185" type="line"/>
			<point x="490" y="147"/>
			<point x="429" y="110"/>
			<point x="366" y="110" type="curve"/>
			<point x="266" y="110"/>
			<point x="200" y="176"/>
			<point x="200" y="276" type="curve"/>
			<point x="200" y="317"/>
			<point x="211" y="350"/>
			<point x="233" y="378" type="curve"/>
			<point x="233" y="529" type="line"/>
			<point x="146" y="484"/>
			<point x="80" y="388"/>
			<point x="80" y="276" type="curve"/>
			<point x="80" y="118"/>
			<point x="208" y="-10"/>
			<point x="366" y="-10" type="curve"/>
			<point x="444" y="-10"/>
			<point x="514" y="22"/>
		</contour>
	</outline>
</glyph>
<glyph name="Extintor" format="2">
	<advance width="728"/>
	<outline>
		<contour>
			<point x="532" y="0" type="line"/>
			<point x="698" y="0" type="line"/>
			<point x="698" y="488" type="line"/>
			<point x="698" y="603"/>
			<point x="646" y="647"/>
			<point x="512" y="647" type="curve"/>
			<point x="377" y="647"/>
			<point x="325" y="603"/>
			<point x="325" y="488" type="curve"/>
			<point x="325" y="0" type="line"/>
			<point x="482" y="0" type="line"/>
			<point x="482" y="104" type="line"/>
			<point x="445" y="104" type="line"/>
			<point x="445" y="488" type="line"/>
			<point x="445" y="533"/>
			<point x="465" y="543"/>
			<point x="512" y="543" type="curve"/>
			<point x="558" y="543"/>
			<point x="578" y="533"/>
			<point x="578" y="488" type="curve"/>
			<point x="578" y="104" type="line"/>
			<point x="532" y="104" type="line"/>
		</contour>
		<contour>
			<point x="452" y="756" type="line"/>
			<point x="452" y="636" type="line"/>
			<point x="572" y="636" type="line"/>
			<point x="572" y="756" type="line"/>
		</contour>
		<contour>
			<point x="431" y="745" type="line"/>
			<point x="184" y="745"/>
			<point x="91" y="642"/>
			<point x="93" y="374" type="curve" smooth="yes"/>
			<point x="95" y="146" type="line"/>
			<point x="201" y="148" type="line"/>
			<point x="201" y="376" type="line" smooth="yes"/>
			<point x="201" y="575"/>
			<point x="265" y="651"/>
			<point x="431" y="651" type="curve" smooth="yes"/>
			<point x="636" y="651" type="line"/>
			<point x="636" y="745" type="line"/>
		</contour>
		<contour>
			<point x="148" y="342" type="line"/>
			<point x="30" y="0" type="line"/>
			<point x="266" y="0" type="line"/>
		</contour>
	</outline>
</glyph>
<glyph name="questiondown.ss01" format="2">
	<advance width="570"/>
	<guideline x="571" y="-175" angle="0"/>
	<outline>
		<contour>
			<point x="199" y="77" type="curve" smooth="yes"/>
			<point x="305" y="77" type="line"/>
			<point x="375" y="77"/>
			<point x="411" y="106"/>
			<point x="411" y="173" type="curve" smooth="yes"/>
			<point x="411" y="205"/>
			<point x="411" y="302"/>
			<point x="411" y="325" type="curve"/>
			<point x="289" y="325" type="line"/>
			<point x="289" y="285"/>
			<point x="289" y="258"/>
			<point x="289" y="233" type="curve" smooth="yes"/>
			<point x="289" y="208"/>
			<point x="277" y="197"/>
			<point x="249" y="197" type="curve" smooth="yes"/>
			<point x="149" y="196" type="line" smooth="yes"/>
			<point x="73" y="195"/>
			<point x="40" y="156"/>
			<point x="40" y="86" type="curve" smooth="yes"/>
			<point x="40" y="-66" type="line" smooth="yes"/>
			<point x="40" y="-142"/>
			<point x="53" y="-175"/>
			<point x="129" y="-175" type="curve" smooth="yes"/>
			<point x="463" y="-175" type="line"/>
			<point x="463" y="-50" type="line"/>
			<point x="199" y="-50" type="line" smooth="yes"/>
			<point x="172" y="-50"/>
			<point x="160" y="-32"/>
			<point x="160" y="-12" type="curve" smooth="yes"/>
			<point x="160" y="8"/>
			<point x="160" y="26"/>
			<point x="160" y="34" type="curve" smooth="yes"/>
			<point x="160" y="64"/>
			<point x="172" y="77"/>
		</contour>
		<contour>
			<point x="413" y="529" type="line"/>
			<point x="284" y="529" type="line"/>
			<point x="284" y="400" type="line"/>
			<point x="413" y="400" type="line"/>
		</contour>
	</outline>
</glyph>
